<svg width="24" height="24" viewBox="0 0 24 24" fill="none" xmlns="http://www.w3.org/2000/svg">
<path d="M9.93376 15.4947C9.84451 15.1487 9.66419 14.833 9.41155 14.5804C9.15892 14.3277 8.8432 14.1474 8.49725 14.0582L2.36433 12.4767C2.25969 12.447 2.1676 12.384 2.10203 12.2972C2.03646 12.2104 2.00098 12.1046 2.00098 11.9959C2.00098 11.8871 2.03646 11.7813 2.10203 11.6945C2.1676 11.6078 2.25969 11.5447 2.36433 11.515L8.49725 9.93258C8.84308 9.84342 9.15871 9.66324 9.41134 9.4108C9.66396 9.15835 9.84435 8.84284 9.93376 8.49707L11.5152 2.36415C11.5446 2.2591 11.6076 2.16656 11.6945 2.10063C11.7814 2.03471 11.8875 1.99902 11.9966 1.99902C12.1056 1.99902 12.2117 2.03471 12.2986 2.10063C12.3855 2.16656 12.4485 2.2591 12.4779 2.36415L14.0584 8.49707C14.1476 8.84302 14.3279 9.15874 14.5806 9.41137C14.8332 9.66401 15.1489 9.84433 15.4949 9.93358L21.6278 11.514C21.7333 11.5431 21.8263 11.606 21.8925 11.6931C21.9588 11.7801 21.9947 11.8865 21.9947 11.9959C21.9947 12.1053 21.9588 12.2117 21.8925 12.2987C21.8263 12.3857 21.7333 12.4486 21.6278 12.4777L15.4949 14.0582C15.1489 14.1474 14.8332 14.3277 14.5806 14.5804C14.3279 14.833 14.1476 15.1487 14.0584 15.4947L12.4769 21.6276C12.4475 21.7327 12.3845 21.8252 12.2976 21.8911C12.2107 21.9571 12.1046 21.9927 11.9956 21.9927C11.8865 21.9927 11.7804 21.9571 11.6935 21.8911C11.6066 21.8252 11.5436 21.7327 11.5142 21.6276L9.93376 15.4947Z" stroke="#31332F" stroke-width="1.99932" stroke-linecap="round" stroke-linejoin="round"/>
<path d="M19.9932 2.99902V6.99767" stroke="#31332F" stroke-width="1.99932" stroke-linecap="round" stroke-linejoin="round"/>
<path d="M21.9923 4.99854H17.9937" stroke="#31332F" stroke-width="1.99932" stroke-linecap="round" stroke-linejoin="round"/>
<path d="M3.99854 16.9941V18.9941" stroke="#31332F" stroke-width="1.99932" stroke-linecap="round" stroke-linejoin="round"/>
<path d="M4.99902 17.9937H2.99902" stroke="#31332F" stroke-width="1.99932" stroke-linecap="round" stroke-linejoin="round"/>
</svg>
