<svg width="24" height="24" viewBox="0 0 24 24" fill="none" xmlns="http://www.w3.org/2000/svg">
<path d="M14.9948 1.99951H5.99786C5.4676 1.99951 4.95907 2.21015 4.58412 2.5851C4.20918 2.96004 3.99854 3.46858 3.99854 3.99883V19.9934C3.99854 20.5237 4.20918 21.0322 4.58412 21.4071C4.95907 21.7821 5.4676 21.9927 5.99786 21.9927H17.9938C18.524 21.9927 19.0326 21.7821 19.4075 21.4071C19.7825 21.0322 19.9931 20.5237 19.9931 19.9934V6.99782L14.9948 1.99951Z" stroke="#31332F" stroke-width="1.99932" stroke-linecap="round" stroke-linejoin="round"/>
<path d="M13.9951 1.99951V5.99815C13.9951 6.52841 14.2058 7.03694 14.5807 7.41189C14.9557 7.78683 15.4642 7.99748 15.9944 7.99748H19.9931" stroke="#31332F" stroke-width="1.99932" stroke-linecap="round" stroke-linejoin="round"/>
<path d="M9.99707 8.99707H7.99707" stroke="#31332F" stroke-width="1.99932" stroke-linecap="round" stroke-linejoin="round"/>
<path d="M15.9944 12.9956H7.99707" stroke="#31332F" stroke-width="1.99932" stroke-linecap="round" stroke-linejoin="round"/>
<path d="M15.9944 16.9941H7.99707" stroke="#31332F" stroke-width="1.99932" stroke-linecap="round" stroke-linejoin="round"/>
</svg>
