<svg width="24" height="24" viewBox="0 0 24 24" fill="none" xmlns="http://www.w3.org/2000/svg">
<path d="M18.9936 2.99902H4.99834C3.89415 2.99902 2.99902 3.89415 2.99902 4.99834V18.9936C2.99902 20.0978 3.89415 20.9929 4.99834 20.9929H18.9936C20.0978 20.9929 20.9929 20.0978 20.9929 18.9936V4.99834C20.9929 3.89415 20.0978 2.99902 18.9936 2.99902Z" stroke="#31332F" stroke-width="1.99932" stroke-linecap="round" stroke-linejoin="round"/>
<path d="M8.99688 10.9962C10.1011 10.9962 10.9962 10.1011 10.9962 8.99688C10.9962 7.89269 10.1011 6.99756 8.99688 6.99756C7.89269 6.99756 6.99756 7.89269 6.99756 8.99688C6.99756 10.1011 7.89269 10.9962 8.99688 10.9962Z" stroke="#31332F" stroke-width="1.99932" stroke-linecap="round" stroke-linejoin="round"/>
<path d="M20.993 14.995L17.908 11.9101C17.5331 11.5353 17.0246 11.3247 16.4945 11.3247C15.9643 11.3247 15.4559 11.5353 15.081 11.9101L5.99805 20.993" stroke="#31332F" stroke-width="1.99932" stroke-linecap="round" stroke-linejoin="round"/>
</svg>
