<svg width="24" height="24" viewBox="0 0 24 24" fill="none" xmlns="http://www.w3.org/2000/svg">
<path d="M11.9961 1.99951C11.2007 1.99951 10.4379 2.31548 9.87545 2.87789C9.31303 3.44031 8.99707 4.20311 8.99707 4.99849V11.9961C8.99707 12.7915 9.31303 13.5543 9.87545 14.1167C10.4379 14.6791 11.2007 14.9951 11.9961 14.9951C12.7914 14.9951 13.5542 14.6791 14.1167 14.1167C14.6791 13.5543 14.995 12.7915 14.995 11.9961V4.99849C14.995 4.20311 14.6791 3.44031 14.1167 2.87789C13.5542 2.31548 12.7914 1.99951 11.9961 1.99951Z" stroke="#31332F" stroke-width="1.99932" stroke-linecap="round" stroke-linejoin="round"/>
<path d="M18.9938 9.99658V11.9959C18.9938 13.8518 18.2565 15.6317 16.9442 16.944C15.6319 18.2563 13.852 18.9935 11.9962 18.9935C10.1403 18.9935 8.3604 18.2563 7.04809 16.944C5.73578 15.6317 4.99854 13.8518 4.99854 11.9959V9.99658" stroke="#31332F" stroke-width="1.99932" stroke-linecap="round" stroke-linejoin="round"/>
<path d="M11.9961 18.9937V21.9926" stroke="#31332F" stroke-width="1.99932" stroke-linecap="round" stroke-linejoin="round"/>
</svg>
